<svg xmlns="http://www.w3.org/2000/svg" width="40" height="40" viewBox="0 0 40 40" version="1.1">
	<path d="M 17.822 2.664 C 17.546 5.048, 16.905 5.564, 13.355 6.262 C 11.075 6.710, 8.095 8.109, 6.733 9.372 C 4.525 11.418, 4.246 12.514, 4.165 19.455 C 4.113 23.958, 4.647 28.612, 5.431 30.490 C 8.138 36.969, 18.130 42.013, 21.527 38.616 C 22.416 37.727, 23.976 37, 24.995 37 C 27.762 37, 32.728 32.373, 33.884 28.717 C 35.321 24.173, 34.813 12.683, 33.082 10.599 C 31.259 8.402, 28.274 6.813, 24.500 6.031 C 22.158 5.545, 21.500 4.874, 21.500 2.973 C 21.500 -0.648, 18.237 -0.922, 17.822 2.664 M 14 24.845 C 14 29.293, 16.348 32, 20.206 32 C 23.524 32, 25.050 30.044, 25.739 24.906 C 26.181 21.611, 26.005 20.831, 24.900 21.196 C 24.130 21.451, 23.275 23.152, 23 24.976 C 22.337 29.373, 19.435 31.244, 17.441 28.559 C 16.649 27.491, 16 25.354, 16 23.809 C 16 22.264, 15.550 21, 15 21 C 14.450 21, 14 22.730, 14 24.845" stroke="none" fill="black" fill-rule="evenodd"/>
</svg>